<svg t="1753941743254" class="icon" viewBox="0 0 1024 1024" version="1.1" xmlns="http://www.w3.org/2000/svg" p-id="12458" width="160" height="160"><path d="M375 502l119.5-114.5L140.9 63.8C61.2 302.9 375 502 375 502z" fill="#040000" p-id="12459"></path><path d="M758.4 571.8H643.9c-24.9-10-10-49.8-10-49.8S788.3 402.5 843 327.8c54.8-79.7 44.8-244 44.8-244L474.6 472.2c10-10 24.9-14.9 39.8-14.9 39.8 0 74.7 34.9 74.7 74.7s-34.9 74.7-74.7 74.7c-39.8 0-74.7-34.9-74.7-74.7 0-14.9 5-29.9 14.9-44.8L365 571.8h-94.6c-109.6 0-199.2 84.7-199.2 194.2s89.6 194.2 199.2 194.2S469.6 875.5 469.6 766c0-34.9-10-64.7-24.9-89.6 44.8-24.9 99.6-19.9 139.4-10-19.9 29.9-29.9 64.7-29.9 99.6 0 109.6 89.6 194.2 199.2 194.2S952.6 875.5 952.6 766c5-109.6-84.6-194.2-194.2-194.2z m-488 313.7c-69.7 0-124.5-54.8-124.5-119.5s54.8-119.5 124.5-119.5S394.9 701.2 394.9 766c0 69.7-54.8 119.5-124.5 119.5z m488 0c-69.7 0-124.5-54.8-124.5-119.5 0-29.9 10-54.8 24.9-74.7l5-5c24.9-24.9 54.8-44.8 94.6-44.8 69.7 0 124.5 54.8 124.5 119.5 0 74.7-54.8 124.5-124.5 124.5z" fill="#040000" p-id="12460"></path></svg>